<svg width="100%" height="100%" xmlns="http://www.w3.org/2000/svg"><polygon stroke="black" fill="yellow" points="198.0,200.0 198.03842943919355,200.39018064403226 198.1522409349774,200.76536686473017 198.33706077539492,201.11114046603922 198.5857864376269,201.4142135623731 198.8888595339608,201.66293922460508 199.23463313526983,201.8477590650226 199.60981935596774,201.96157056080645 199.65270364466613,201.9696155060244 211.47039668081263,204.0533936380276 211.8176930361465,204.08377813200318 212.20787368017875,204.04534869280963 212.5830599008767,203.93153719702573 212.9288335021857,203.74671735660826 213.2319065985196,203.49799169437625 213.48063226075158,203.19491859804236 213.66545210116908,202.84914499673334 213.77926359695294,202.47395877603543 213.89583330522572,201.6445222032441 213.93426274441927,201.25434155921184 213.99268992422915,200.41879396043 213.99268992422915,199.58120603957 213.9542604850356,199.19102539553774 213.84044898925174,198.81583917483982 213.65562914883424,198.47006557353077 213.40690348660226,198.16699247719689 213.10383039026837,197.9182668149649 212.75805678895932,197.7334469745474 212.3828705682614,197.61963547876354 211.99268992422915,197.58120603957 211.92289093082417,197.5824243855318 199.930201006595,198.0012183459618 199.60981935596774,198.03842943919355 199.23463313526983,198.1522409349774 198.88885953396078,198.33706077539492 198.5857864376269,198.5857864376269 198.33706077539492,198.88885953396078 198.1522409349774,199.23463313526983 198.03842943919355,199.60981935596774 198.0,200.0 "></polygon><path stroke="black" d=" M 0.0 0.0 M 200.0 200.0 L 211.99268992422915 199.58120603957 M 200.0 200.0 L 211.99268992422915 200.41879396043 M 200.0 200.0 L 211.93426274441927 201.25434155921184 M 200.0 200.0 L 211.8176930361465 202.08377813200318"></path></svg>