<svg width="135.48980024573484" height="84.98188146257016" xmlns="http://www.w3.org/2000/svg"><polygon stroke="black" fill="#4a6700" points="135.48980024573484,1.0636827590220435 135.4693618797803,0.8561685470414204 135.4088322168584,0.6566289898519244 135.31053737796975,0.4727322807332257 135.17825477864852,0.3115454670863471 135.01706796500162,0.1792628677650896 134.83317125588292,0.08096802887644117 134.63363169869342,0.020438365954532856 134.42611748671283,0.0 134.21860327473217,0.020438365954532856 134.13286007705267,0.04644828061250905 134.13146937573225,0.04162429565690218 74.62709400398204,17.196075265750096 37.75189522534066,27.73169554685569 14.91449329232158,34.2557908188067 14.914492860621309,34.25579094213296 0.7715033635342223,38.29609568971844 0.7715045004506322,38.29609966946697 0.7715042126510241,38.29609975168435 0.7715053495685851,38.29610373143265 0.7715050617689769,38.29610381365009 0.7715061986876464,38.29610779339802 0.7715059108880808,38.29610787561555 0.7717258421678395,38.296877737304754 0.7717050912334287,38.29688366581158 0.771706228233981,38.29688764553612 0.7717059404361208,38.296887727759554 0.7717070774378101,38.29689170748381 0.7717067896399499,38.29689178970733 0.7717079266427476,38.29689576943122 0.7717076388449158,38.296895851654824 0.7719275864002526,38.29766570869435 0.7719068355911674,38.297671637639866 0.7719079726758622,38.29767561734036 0.7719076848797357,38.29767569956991 0.7719088219655532,38.29767967927009 0.7719085341694409,38.29767976149972 0.7719096712563811,38.29768374119959 0.771909383460283,38.29768382342928 0.772129347291056,38.29845367581868 0.7721085966073389,38.29845960520288 0.772109733776162,38.29846358487933 0.7721094459817692,38.29846366711496 0.772110583151715,38.298467646791096 0.7721102953573507,38.29846772902681 0.7721114325284191,38.298471708702635 0.7721111447340689,38.29847179093841 0.7728066481917324,38.30090579178386 0.6566289898519102,38.33614789915052 0.4727322807332257,38.434442738039166 0.3115454670863329,38.566725337360424 0.17926286776507538,38.7279121510073 0.08096802887644117,38.911808860126 0.020438365954518645,39.1113484173155 0.0,39.31886262929612 0.020438365954518645,39.52637684127674 0.020439469059567728,39.52638047772675 0.020439502871511195,39.526380821025185 0.02044060597826558,39.52638445748079 0.020440639789626402,39.52638480077334 0.02044174289808609,39.5263884372346 0.020441776708864268,39.52638878052116 0.020655179477898855,39.52709227517121 0.020661715861621133,39.52715864018893 0.02066281909476686,39.52716227706122 0.020662852862756154,39.52716261991333 0.020663956097607183,39.52716625679125 0.020663989865013832,39.52716659963744 0.020665093101555954,39.52717023652093 0.020665126868379957,39.52717057936121 0.020878554416114525,39.52787415569571 0.020885082296658197,39.52794043437913 0.02088618565791478,39.527944071673716 0.02088621938193569,39.52794441407951 0.020887322744869152,39.52794805137967 0.020887356468321627,39.52794839377958 0.020888459832960393,39.52795203108536 0.020888493555830223,39.52795237347934 0.021101945882165296,39.528656031497945 0.02110846525951615,39.528722223846955 0.021109568748855168,39.52872586156377 0.021109602428921903,39.52872620352329 0.02111070591996622,39.528729841245735 0.021110739599450312,39.528730183199315 0.02111184309217151,39.52873382092733 0.021111876771087168,39.528734162875026 0.053118421575007346,39.63424560088811 0.054045427027602955,39.64365764519857 0.05404653975476492,39.643661313368455 0.05404657026423365,39.64366162313624 0.05404768299310092,39.64366529131175 0.054047713501987005,39.64366560107359 0.054048826232545366,39.64366926925467 0.054048856740848805,39.643669579010606 0.05426412085499521,39.64437920969317 0.054270018390511154,39.644439088376174 0.054271131245741344,39.6444427569682 0.05427116171124169,39.64444306628968 0.05427227456816297,39.64444673488728 0.05427230503308067,39.64444704420285 0.054273417891707254,39.644450712806076 0.05427344835604231,39.6444510221157 0.054488737241726426,39.6451607344591 0.05449462627383639,39.64522052680556 0.05449573925710638,39.64522419581968 0.05449576967865255,39.64522450469488 0.054496882663656265,39.64522817371471 0.05449691308460558,39.64522848258386 0.054498026071286176,39.645232151609235 0.05449805649166706,39.645232460472556 0.054713370148732565,39.64594225447627 0.05471925067745076,39.646001960486274 0.05472036378877476,39.64600562992254 0.05472039416636676,39.646005938351436 0.054721507279424486,39.64600960779342 0.05472153765641963,39.64600991621626 0.054722650771140025,39.646013585663724 0.05472268114756673,39.64601389408077 0.08700710801788603,39.752441386500976 0.08783872375924773,39.76088492282 0.08783984610572304,39.76088862270049 0.08783987331263177,39.76088889893683 0.08784099566079817,39.76089259882289 0.08784102286712425,39.760892875053344 0.08784214521701017,39.760896574945065 0.0878421724227394,39.76089685116952 0.08805929733895823,39.76161261609445 0.08806455601138907,39.76166600829163 0.08806567848586155,39.76166970859407 0.0880657056488161,39.761669984384156 0.08806682812502231,39.76167368469231 0.08806685528738001,39.76167396047637 0.0880679777652773,39.7616776607901 0.08806800492705236,39.76167793656825 0.08828515460753295,39.76239378313002 0.08829040477637307,39.76244708898878 0.08829152737888535,39.76245078971331 0.08829155449787152,39.76245106505701 0.08829267710207489,39.76245476578708 0.08829270422047841,39.76245504112492 0.08829382682638709,39.762458741860655 0.08829385394420797,39.7624590171925 0.08851102838883662,39.763174945390716 0.08851627005408602,39.76322816491111 0.08851739278460968,39.76323186605765 0.08851741985964168,39.76323214095504 0.08851854259188485,39.76323584210721 0.08851856966631999,39.76323611699863 0.08851969240024005,39.763239818156364 0.08851971947410675,39.7632400930419 0.1210819469660862,39.87058337138188 0.12181817089827973,39.878058378408895 0.12181930286122622,39.87806210999062 0.12181932676550389,39.87806235269488 0.12182045873015568,39.87806608428224 0.1218204826338507,39.87806632698053 0.12182161460019358,39.878070058573485 0.12182163850330596,39.878070301265836 0.12204062367385404,39.87879219862745 0.12204524346992685,39.878839104204104 0.1220463755608705,39.87884283620778 0.12204639942117979,39.87884307846562 0.12204753151380032,39.87884681047484 0.12204755537354117,39.878847052726854 0.12204868746788122,39.87885078474173 0.12204871132702522,39.87885102698772 0.12226772125450225,39.87957300596199 0.12227233254682801,39.87961982519866 0.12227346476574041,39.8796235576242 0.12227348858209552,39.879623799435734 0.12227462080271323,39.8796275318669 0.1222746446184857,39.879627773672524 0.12227577684079449,39.87963150610926 0.12227580065598431,39.879631747908974 0.12249483534029082,39.880353808495585 0.12249943812885533,39.88040054139208 0.12250057047573648,39.88040427423948 0.12250059424813742,39.88040451560474 0.12250172659672387,39.88040824845777 0.12250175036854216,39.88040848981706 0.1225028827188197,39.88041222267566 0.12250290649005535,39.880412464029064 0.18303256941197787,40.07995202121856 0.2813274083006121,40.26384873033726 0.4136100076218696,40.42503554398414 0.5747968212687624,40.557318143305395 0.7586935303874469,40.65561298219404 0.9582330875769571,40.71614264511595 1.165747299557566,40.736581011070484 1.3732615115381748,40.71614264511595 1.461385853055134,40.68941041837169 1.4621120331725024,40.69190728730388 1.4621123205771056,40.6919072037162 1.462113476444884,40.69191117800196 1.4621137638494872,40.691911094414195 1.462114919718374,40.691915068699615 1.4621152071229346,40.691914985111765 1.4621163629929441,40.69191895939687 1.462137085565331,40.69191293250165 1.4623606982728887,40.69268173296041 1.4623609856757582,40.69268164936665 1.462362141627537,40.69268562362794 1.4623624290303496,40.69268554003409 1.4623635849832652,40.692689514295125 1.4623638723860637,40.69268943070119 1.4623650283400877,40.69269340496186 1.4623857507850317,40.692687377628545 1.462609379745743,40.693456173359806 1.462609667146836,40.69345608975996 1.4626108231826436,40.69346006399681 1.462611110583694,40.69345998039688 1.4626122666206385,40.69346395463347 1.4626125540216606,40.69346387103346 1.4626137100597134,40.69346784526971 1.4626344323772429,40.6934618174983 1.4628580775909512,40.694230608501556 1.4628583649902538,40.69423052489563 1.46285952111009,40.69423449910809 1.4628598085093785,40.69423441550208 1.4628609646303374,40.69423838971423 1.4628612520295832,40.69423830610816 1.4628624081516506,40.69424228031994 15.586175653611875,36.585685679920545 15.586176084711596,36.585685554511144 38.39181132759168,29.951399808788523 75.21639022594057,19.240192192481118 117.61097177173413,7.0183048777846295 76.97283218980168,24.200175709992692 41.61408276952699,39.05071169661463 19.715748990967953,48.247109029315766 19.71574857701907,48.24710920315712 6.154314439568267,53.942345677936856 6.154316042172113,53.942349494039405 6.154315766206736,53.942349609933444 6.154317368811647,53.94235342603554 6.154317092846313,53.94235354192966 6.1543186954522895,53.9423573580313 6.154318419486984,53.94235747392548 6.154507121418831,53.942806807817135 5.975221693386345,54.03863686561422 5.814034879739452,54.17091946493548 5.681752280418195,54.33210627858236 5.583457441529561,54.51600298770106 5.522927778607638,54.71554254489055 5.502489412653119,54.923056756871176 5.522927778607638,55.1305709688518 5.583457441529561,55.330110526041295 5.5834584704885515,55.33011245108818 5.58345904413396,55.330114342143645 5.583460073095722,55.330116267195706 5.583460646739425,55.33011815824557 5.583461675704015,55.330120083302916 5.5834622493459705,55.33012197434701 5.583661317097139,55.330494403914486 5.583772273008037,55.33086017653338 5.583773302177306,55.33086210197365 5.5837738756930975,55.33086399260185 5.583774904865152,55.33086591804735 5.583775478379238,55.33086780866989 5.583776507554134,55.33086973412071 5.583777081066458,55.330871624737455 5.583976189500575,55.33124413041736 5.584087120334772,55.331609820369465 5.584088149714347,55.33161174620318 5.584088723100507,55.33161363640406 5.58408975248291,55.33161556224306 5.5840903258673364,55.33161745243822 5.584091355252511,55.331619378282426 5.5840919286352175,55.331621268471906 5.584291077752141,55.331993850263984 5.584401983509608,55.33235945754919 5.584403013099475,55.33236138377637 5.584403586356018,55.3323632735499 5.584404615948742,55.3323651997824 5.5844051892035225,55.33236708955016 5.584406218798989,55.332369015787805 5.584406792052079,55.332370905549965 5.614364508575889,55.388417851083716 5.630787300235525,55.44255653974295 5.630788344993491,55.44255849434762 5.630788908899035,55.44256035329508 5.630789953659814,55.442562307905035 5.630790517563625,55.44256416684675 5.630791562327218,55.442566121461965 5.630792126229295,55.44256798039797 5.630994250216759,55.4429461277814 5.631103321992811,55.44330568924008 5.6311043669610825,55.44330764423822 5.631104930736953,55.44330950275818 5.63110597570801,55.443311457761524 5.631106539482161,55.443313316275834 5.631107584456032,55.44331527128443 5.631108148228449,55.44331712979303 5.6313103128920545,55.443695353276155 5.631419359587767,55.444054832056054 5.631420404766274,55.44405678744752 5.631420968412513,55.44405864554014 5.631422013593848,55.44406060093689 5.631422577238354,55.4440624590238 5.631423622422503,55.44406441442578 5.63142418606526,55.44406627250697 5.6316263914049784,55.444444572089736 5.6317354130202375,55.444803968190485 5.6317364584090654,55.44480592397542 5.63173702192563,55.44480778164058 5.6317380673172295,55.44480973743069 5.631738630832075,55.44481159509019 5.6317396762264735,55.44481355088553 5.6317402397395995,55.44481540853937 5.662154254079539,55.501716027243674 5.67829569815423,55.55492723721221 5.678296758708612,55.55492922136992 5.6782973128728145,55.55493104820445 5.678298373429968,55.55493303236733 5.678298927592465,55.554934859196266 5.678299988152446,55.55493684336443 5.678300542313195,55.554938670187596 5.678505722027026,55.555322534432946 5.678612909393095,55.55567588382445 5.678613970157727,55.55567786837551 5.678614524192255,55.555679694782555 5.67861558495963,55.555681679338704 5.678616138992467,55.555683505740234 5.6786171997626695,55.5556854903017 5.678617753793759,55.55568731669743 5.678822974176967,55.55607125702983 5.678930136459016,55.55642452373041 5.6789311974338545,55.55642650867472 5.678931751338737,55.55642833465441 5.678932812316376,55.556430319603976 5.678933366219525,55.55643214557793 5.678934427199977,55.55643413053275 5.678934981101392,55.55643595650099 5.679140242153821,55.55681997292015 5.679247379351821,55.55717315692971 5.679248440536895,55.55717514226734 5.679248994312104,55.557176967819544 5.679250055499963,55.557178953162406 5.679250609273453,55.557180778708926 5.679251670464126,55.557182764057046 5.679252224235881,55.55718458959785 5.71012245966584,55.61493873792827 5.7259825154351205,55.6672223349687 5.7259835917831765,55.66722434867427 5.725984136204687,55.667226143391474 5.7259852125555994,55.667228157102386 5.725985756975348,55.667229951813795 5.725986833329031,55.66723196552988 5.72598737774706,55.66723376023563 5.726195612669642,55.66762334037452 5.726300915355338,55.66797047680748 5.7263019919136156,55.66797249090635 5.726302536205424,55.66797428519598 5.7263036127665,55.66797629930008 5.726304157056589,55.667978093584054 5.726305233620465,55.66798010769341 5.72630577790882,55.66798190197164 5.7265140534938155,55.66837155818456 5.726619331091911,55.668718611914784 5.726620407860395,55.66872062640692 5.726620952022515,55.668722420269035 5.7266220287938125,55.66872443476643 5.726622572954199,55.66872622862283 5.726623649728268,55.66872824312543 5.726624193886934,55.66873003697614 5.72683251013423,55.66911976926286 5.726937762644724,55.669466740290346 5.726938839623401,55.66946875517573 5.726939383655832,55.66947054861032 5.726940460637323,55.66947256350096 5.726941004668021,55.66947435692984 5.726942081652325,55.669476371825766 5.726942625681289,55.669478165248904 5.825237464569923,55.8533748743676 5.957520063891181,56.01456168801448 6.118706877538074,56.14684428733574 6.302603586656758,56.24513912622439 6.5021431438462685,56.305668789146296 6.709657355826877,56.32610715510083 6.917171567807486,56.305668789146296 7.116711124996996,56.24513912622439 7.125846733519211,56.24025604173556 7.125901498653732,56.24038471171903 7.125901774058832,56.2403845944998 7.1259033949899475,56.24038840285377 7.125903670395019,56.24038828563445 7.125905291327214,56.24039209398799 7.125905566732229,56.24039197676859 7.12590718766549,56.24039578512165 7.1259270450409815,56.24038733331059 7.126240621189353,56.24112403324108 7.126240896591966,56.24112391601602 7.1262425176036,56.24112772433571 7.126242793006185,56.24112760711057 7.126244414018885,56.241131415429834 7.126244689421441,56.24113129820461 7.126246310435221,56.241135106523416 20.66001902332775,50.480474508654225 20.660019436432364,50.480474332816016 42.51369471359659,41.17845180725982 77.8012812915551,26.159603211373337 118.43942087349232,8.977732379163257 80.1356979144034,30.875218112674304 46.79628655095361,49.82945852511392 26.148469289048094,61.567362447257295 26.148469028841333,61.5673625951799 26.148469025425513,61.56736259712173 26.148468898737974,61.56736266914126 26.14846876863463,61.56736274310268 13.361467190389291,68.83653054990762 13.36146923588754,68.83653414808973 13.36146897568132,68.8365342960121 13.361471021180634,68.8365378941937 13.361470760974427,68.83653804211619 13.361472806474708,68.8365416402971 13.361472546268587,68.83654178821965 13.361868237966235,68.83723783769258 13.361849476681897,68.83724850365164 13.36185152225623,68.83725210179048 13.36185126205315,68.83725224971838 13.361853307628508,68.83725584785665 13.361853047425427,68.83725599578466 13.361855093001793,68.83725959392237 13.361854832798784,68.83725974185043 13.362250539211487,68.83795578295789 13.362231778152662,68.83796644931354 13.36223382380308,68.83797004740919 13.362233563603084,68.83797019534259 13.362235609254512,68.83797379343767 13.362235349054586,68.83797394137113 13.362237394707023,68.83797753946558 13.362237134507126,68.83797768739916 13.3626328556347,68.8386737201408 13.362614094801373,68.8386843868931 13.362616140527862,68.8386879849455 13.362615880331006,68.83868813288441 13.362617926058505,68.83869173093623 13.362617665861706,68.83869187887521 13.362619711590185,68.8386954769264 13.362619451393442,68.83869562486544 13.363760847913312,68.84070312510968 13.296195147216281,68.87681774454055 13.135008333569388,69.00910034386177 13.00272573424813,69.17028715750868 12.904430895359496,69.35418386662732 12.843901232437574,69.55372342381688 12.823462866483055,69.76123763579747 12.843901232437574,69.96875184777807 12.904430895359496,70.16829140496762 13.00272573424813,70.35218811408626 13.002726084783845,70.35218854121527 13.00272777974692,70.35219171226814 13.002728130286442,70.35219213940181 13.002729825246732,70.35219531044945 13.002730175790106,70.35219573758778 13.002731870747553,70.35219890863013 13.002799708347396,70.3522815689847 13.003127569617178,70.35289495427779 13.003127920437407,70.35289538175348 13.003129615192051,70.3528985524164 13.003129966016004,70.35289897989665 13.00313166076792,70.35290215055446 13.003132011595682,70.3529025780393 13.003133706344812,70.35290574869194 13.003201598968317,70.35298847609303 13.003529419929421,70.3536017859739 13.003529771033982,70.35360221379605 13.003531465580352,70.35360538406931 13.003531816688806,70.35360581189619 13.003533511232305,70.3536089821641 13.003533862344483,70.35360940999553 13.003535556885254,70.35361258025833 13.003603504532151,70.35369537470561 13.003931285184663,70.35430860917441 13.003931636573697,70.3543090373432 13.003933330911664,70.35431220722657 13.003933682304591,70.35431263540008 13.003935376639689,70.3543158052781 13.003935728036339,70.35431623345616 13.003937422368708,70.35431940332907 13.014383313479527,70.36704775847554 13.063105243163719,70.45820007768307 13.06310561506885,70.4582005308508 13.063107294374944,70.45820367261152 13.063107666283969,70.45820412578396 13.063109345587193,70.45820726753934 13.063109717499927,70.45820772071633 13.063111396800466,70.45821086246664 13.063183368200896,70.45829855987179 13.063508200705897,70.45890627874454 13.063508572895415,70.45890673225878 13.063510251993137,70.45890987362966 13.063510624186506,70.45891032714857 13.063512303281385,70.45891346851417 13.063512675478606,70.4589139220378 13.063514354570643,70.45891706339805 13.063586380992135,70.4590048278466 13.063911173177758,70.45961247128704 13.063911545651791,70.45961292514798 13.063913224540997,70.45961606612875 13.063913597018797,70.45961651999428 13.063915275905245,70.45961966096988 13.06391564838681,70.45962011483996 13.063917327270502,70.45962325581044 13.063989408713141,70.45971108730245 13.064314160579116,70.46031865531015 13.064314533337551,70.4603191095176 13.06431621201834,70.46032225010848 13.064316584780585,70.46032270432059 13.064318263458588,70.46032584490624 13.064318636224598,70.46032629912295 13.064320314899845,70.46032943970343 13.075383423717483,70.47380987680171 13.12365305557789,70.56411600629801 13.123653448851485,70.56411648550326 13.123655112496394,70.56411959796398 13.123655505773755,70.56412007717384 13.123657169415907,70.56412318962938 13.123657562697119,70.5641236688439 13.123659226336429,70.56412678129416 13.123735331355732,70.56421951552849 13.12405713427664,70.56482156644805 13.124057527834722,70.56482204599999 13.124059191271073,70.56482515807048 13.124059584832878,70.56482563762691 13.124061248266528,70.5648287496924 13.124061641832142,70.56482922925349 13.124063305262979,70.56483234131369 13.124139465300928,70.56492514258846 13.124461227891544,70.56552711805531 13.124461621734042,70.56552759795377 13.124463284961905,70.56553070963426 13.124463678808112,70.56553118953727 13.12446534203329,70.5655343012127 13.12446573588332,70.56553478112036 13.124467399105669,70.5655378927905 13.12454361416222,70.56563076110561 13.124865336422388,70.56623266111953 13.124865730549288,70.56623314136456 13.124867393568678,70.56623625265499 13.124867787699259,70.56623673290451 13.124869450715977,70.56623984418994 13.124869844850451,70.56624032444418 13.124871507864299,70.56624343572426 13.136551806479503,70.58047592076682 13.184369018745244,70.66993563273459 13.184369433386323,70.66993613797624 13.184371081365825,70.669939221129 13.184371496010712,70.66993972637525 13.184373143987429,70.66994280952284 13.184373558636125,70.66994331477375 13.184375206610028,70.66994639791605 13.18445544505606,70.67004416874542 13.184774217581207,70.67064055019327 13.184774632506759,70.67064105578149 13.184776280277646,70.67064413854402 13.18477669520692,70.67064464413679 13.184778342975108,70.67064772689426 13.184778757908191,70.67064823249169 13.184780405673564,70.67065131524387 13.18486069913584,70.67074915311073 13.18517943131971,70.67134545908536 13.18517984652955,70.67134596502004 13.185181494092006,70.67134904739257 13.18518190930574,70.67134955333196 13.185183556865326,70.67135263569915 13.185183972082697,70.67135314164298 13.18518561963964,70.67135622400522 13.185265968117903,70.67145412890923 13.185584659960568,70.6720503594108 13.18558507545491,70.67205086569211 13.185586722808736,70.67205394767436 13.185587138306843,70.67205445396027 13.185588785657913,70.67205753593734 13.185589201159743,70.6720580422278 13.185590848508085,70.67206112419976 13.317873447829342,70.83324793784666 13.479060261476235,70.9655305371679 13.66295697059492,71.06382537605654 13.86249652778443,71.12435503897845 14.070010739765038,71.14479340493298 14.277524951745647,71.12435503897845 14.477064508935158,71.06382537605654 14.597787325120976,70.9992976864419 14.598867521895812,71.00117693333655 14.59886778139429,71.00117678417607 14.598869844015354,71.00118037257013 14.598870103513804,71.00118022340953 14.598872166135877,71.00118381180303 14.59887242563427,71.00118366264238 14.598874488257351,71.0011872510353 14.598893198724639,71.00117649618133 14.599292216631241,71.00187064421934 14.599292476126578,71.00187049505334 14.599294538823472,71.00187408340375 14.599294798318752,71.0018739342377 14.599296861016697,71.00187752258759 14.599297120511935,71.00187737342148 14.599299183210874,71.00188096177075 14.599317893450845,71.0018702065212 14.599716926032272,71.00256434612336 14.599717185524426,71.00256419695191 14.59971924829722,71.00256778525878 14.599719507789374,71.0025676360872 14.599721570563148,71.00257122439345 14.599721830055188,71.00257107522188 14.599723892830028,71.00257466352761 14.599742602842625,71.00256390788249 14.600141650098735,71.00325803904857 14.600141909587748,71.0032578898716 14.600143972436399,71.00326147813487 14.600144231925384,71.00326132895785 14.60014629477503,71.00326491722049 14.600146554263944,71.00326476804341 14.600148617114613,71.00326835630548 27.351897141712357,63.67243457470212 27.351897530946488,63.672434350936015 47.94279963443438,51.83497276783956 81.19151730472906,32.7220882928373 119.49524026381566,10.824602559327559 84.0707074197516,37.12626689366158 53.2248028413228,59.914635644426454 34.1211648047436,74.02710435100155 22.290458113219827,82.7668182308606 22.290460572520516,82.76682155994726 22.290460331774185,82.76682173779423 22.290462791075782,82.76682506688016 22.290462550329536,82.76682524472719 22.290465009632072,82.76682857381243 22.290464768885883,82.76682875165952 22.29094050848275,82.76747274593296 22.290923150351787,82.76748556949568 22.290925609722862,82.76748889853039 22.290925368980297,82.76748907638242 22.290927828352267,82.76749240541639 22.290927587609787,82.76749258326848 22.29093004698268,82.76749591230171 22.29092980624027,82.76749609015386 22.291405559451775,82.76814007436971 22.291388201591843,82.7681528982994 22.291390661033248,82.76815622728205 22.29139042029449,82.76815640513914 22.291392879736847,82.7681597341211 22.29139263899812,82.7681599119783 22.291395098441413,82.76816324095958 22.29139485770274,82.76816341881684 22.291870624528542,82.7688073929746 22.29185326693974,82.76882021727127 22.291855726451516,82.7688235462019 22.29185548571651,82.7688237240641 22.291857945229253,82.76882705299411 22.291857704494277,82.76882723085637 22.291860164007957,82.7688305597857 22.291859923273037,82.76883073764802 22.292630671723686,82.76987393802008 22.17034351443857,82.87023241439468 22.038060915117313,83.03141922804159 21.93976607622868,83.21531593716023 21.879236413306757,83.41485549434978 21.858798047352238,83.62236970633037 21.879236413306757,83.82988391831097 21.93976607622868,84.02942347550052 22.038060915117313,84.21332018461916 22.038062864858162,84.21332256038525 22.03806337441847,84.21332351370555 22.038065324163142,84.2133258894763 22.038065833720566,84.21332684279119 22.038067783468975,84.21332921856649 22.0380682930236,84.21333017187615 22.038445488421686,84.21378978579858 22.03854403928608,84.2139741614977 22.038545989308517,84.2139765376069 22.038546498657624,84.21397749053207 22.03854844868384,84.21397986664587 22.03854895803009,84.2139808195657 22.03855090806009,84.21398319568411 22.03855141740351,84.21398414859866 22.038928667262866,84.21444382888231 22.039027177280445,84.21462812816245 22.039029127584513,84.2146305046148 22.03902963672236,84.21463145714475 22.039031587030067,84.2146338336016 22.039032096165215,84.21463478612642 22.039034046476658,84.21463716258782 22.039034555609007,84.21463811510742 22.039411859929658,84.21509786175235 22.039510329100167,84.215282084613 22.03951227968568,84.21528446140834 22.039512788612456,84.21528541354334 22.039514739201707,84.21528779034324 22.03951524812568,84.215288742473 22.039517198718713,84.21529111927751 22.03951770763986,84.21529207140199 22.09615158378557,84.28430064915327 22.110631328580553,84.31139034630095 22.110633299470592,84.3113927478374 22.110633793166215,84.31139367147696 22.11063576406002,84.31139607301802 22.11063625775283,84.31139699665229 22.11063822865033,84.31139939819784 22.11063872234037,84.31140032182694 22.111020008924697,84.31186492087423 22.111115490856676,84.31204355500464 22.111117462028233,84.31204595688413 22.11111795551264,84.31204688012852 22.11111992668792,84.31204928201257 22.11112042016954,84.31205020525172 22.11112239134856,84.31205260714032 22.11112288482738,84.31205353037424 22.111504225860443,84.31251819576747 22.11159966694217,84.31269675347247 22.1116016383951,84.31269915569484 22.11160213166842,84.31270007854428 22.111604103125217,84.31270248077132 22.111604596395622,84.31270340361536 22.111606567856157,84.31270580584695 22.111607061123763,84.31270672868575 22.11198845660539,84.31317146042474 22.11208385683679,84.31334994170416 22.11208582857124,84.31335234426953 22.112086321633342,84.31335326672385 22.11208829337157,84.31335566929383 22.112088786430846,84.31335659174286 22.11209075817277,84.31335899431733 22.112091251229273,84.31335991676119 22.169335922424935,84.38311275043426 22.183357416137028,84.40934512010628 22.183359408171285,84.40934754740707 22.183359886001,84.40934844136356 22.18336187803895,84.40935086866884 22.183362355865896,84.40935176262016 22.183364347907585,84.40935418992999 22.18336482573173,84.40935508387608 22.183750202540708,84.40982466687652 22.18384261529914,84.4099975589871 22.183844607614716,84.40999998663065 22.183845085233315,84.4100008801922 22.183847077552755,84.41000330784047 22.18384755516844,84.41000420139656 22.183849547491448,84.41000662904915 22.183850025104476,84.4100075226003 22.184235456349327,84.41047717193103 22.18432782825431,84.41064998761019 22.18432982085133,84.41065241559667 22.1843302982587,84.41065330876305 22.18433229085946,84.41065573675408 22.184332768264028,84.41065662991522 22.184334760868524,84.4106590579108 22.184335238270293,84.41065995106672 22.184720723950676,84.41112966672736 22.184813055002337,84.4113024059753 22.18481504788072,84.41130483430462 22.184815525076942,84.41130572707598 22.184817517959146,84.41130815540996 22.184817995152486,84.41130904817592 22.184819988038385,84.41131147651438 22.184820465228952,84.41131236927518 22.242675787062296,84.48180928290313 22.256238994318934,84.50718425892214 22.256241007492306,84.507186711981 22.256241469454963,84.50718757625233 22.25624348263206,84.50719002931575 22.25624394459193,84.50719089358185 22.25624595777272,84.50719334664976 22.25624641972982,84.50719421091068 22.256635885791127,84.50766877667948 22.256725229142972,84.50783592633425 22.25672724259762,84.50783837973583 22.25672770434913,84.50783924361215 22.256729717807602,84.50784169701839 22.25673017955623,84.50784256088932 22.256732193018436,84.5078450143001 22.256732654764264,84.5078458781658 22.257122175248256,84.50832051024881 22.25721147774378,84.5084875834668 22.257213491479803,84.50849003721126 22.25721395302007,84.50849090069235 22.25721596675983,84.50849335444136 22.257216428297298,84.50849421791722 22.257218442040838,84.50849667167083 22.25721890357545,84.50849753514134 22.257608478482112,84.50897223353857 22.257697740121117,84.50913923031939 22.257699754138514,84.50914168440667 22.257700215467537,84.50914254749259 22.25770222948867,84.50914500158441 22.257702690814895,84.5091458646651 22.257704704839725,84.50914831876148 22.257705166163177,84.50914918183693 22.389987765484435,84.67033599548384 22.551174579131327,84.80261859480507 22.735071288250012,84.90091343369372 22.934610845439522,84.96144309661562 23.14212505742013,84.98188146257016 23.34963926940074,84.96144309661562 23.54917882659025,84.90091343369372 23.733075535708934,84.80261859480507 23.775830610083332,84.76753041206578 23.77675102812529,84.76876401354454 23.776751268021485,84.76876383455257 23.776753743157954,84.76876715188237 23.77675398305408,84.76876697289035 23.7767564581915,84.76877029021946 23.776756698087596,84.76877011122733 23.776759173225926,84.76877342855576 23.776776470318694,84.76876052277979 23.77725528611326,84.76940223316873 23.777255526005675,84.76940205417165 23.777258001212275,84.76940537144915 23.77725824110462,84.76940519245201 23.777260716312156,84.76940850972883 23.777260956204486,84.76940833073164 23.777263431412948,84.76941164800772 23.777280728232867,84.76939874186613 23.777759557593697,84.77004044213228 23.777759797482332,84.77004026313014 23.77776227275905,84.77004358035529 23.777762512647598,84.77004340135309 23.777764987925295,84.77004671857762 23.77776522781383,84.77004653957536 23.777767703092408,84.77004985679909 23.777784999639493,84.77003695029177 23.778263842566346,84.77067864043485 23.778264082451173,84.77067846142765 23.778266557798048,84.7706817786005 23.778266797682846,84.77068159959325 23.77826927303063,84.77068491676536 23.778269512915358,84.77068473775805 23.778271988264095,84.77068805492948 35.56663519160456,75.97394348641623 54.60191081789611,61.76940065628199 85.33888074065531,38.83431269969577 135.06020414716158,1.9177056620414419 135.05789555055065,1.914596316738141 135.17825477864852,1.8158200509577398 135.31053737796975,1.6546332373108328 135.4088322168584,1.4707365281921625 135.4693618797803,1.271196971002638 135.48980024573484,1.0636827590220435 "></polygon><path stroke="#5a7c08" d=" M 0.0 0.0 M 134.42611748671283 1.0636827590220435 L 84.70377674068367 37.9810451410803 M 84.70377674068367 37.9810451410803 L 53.9657777631236 60.91690095026976 M 53.9657777631236 60.91690095026976 L 34.93048841218673 75.12145402203728 M 34.93048841218673 75.12145402203728 L 23.14212505742013 83.91819870354814 M 34.93048841218673 75.12145402203728 L 23.14212258207185 83.91819538637631 M 34.93048841218673 75.12145402203728 L 23.14212010672449 83.9181920692038 M 34.93048841218673 75.12145402203728 L 23.14211763137807 83.9181887520306 M 53.9657777631236 60.91690095026976 L 34.930188118576865 75.12105159460523 M 34.930188118576865 75.12105159460523 L 23.141638794832403 83.91754705685256 M 34.930188118576865 75.12105159460523 L 23.14163631955425 83.91754373962843 M 34.930188118576865 75.12105159460523 L 23.141633844277024 83.91754042240356 M 34.930188118576865 75.12105159460523 L 23.141631369000734 83.91753710517801 M 53.9657777631236 60.91690095026976 L 34.92988783347475 75.12064916082474 M 34.92988783347475 75.12064916082474 L 23.141152546021218 83.916895399877 M 34.92988783347475 75.12064916082474 L 23.141150070813183 83.91689208260053 M 34.92988783347475 75.12064916082474 L 23.141147595606085 83.91688876532336 M 34.92988783347475 75.12064916082474 L 23.141145120399926 83.91688544804546 M 53.9657777631236 60.91690095026976 L 34.929587556880534 75.12024672069603 M 34.929587556880534 75.12024672069603 L 23.140666310986774 83.9162437326219 M 34.929587556880534 75.12024672069603 L 23.140663835848883 83.91624041529306 M 34.929587556880534 75.12024672069603 L 23.140661360711917 83.91623709796355 M 34.929587556880534 75.12024672069603 L 23.14065888557589 83.91623378063335 M 84.70377674068367 37.9810451410803 L 53.929387329620795 60.86805060751638 M 53.929387329620795 60.86805060751638 L 34.871560782569205 75.04235185819701 M 34.871560782569205 75.04235185819701 L 23.069240356485906 83.82036189098639 M 34.871560782569205 75.04235185819701 L 23.06923788640944 83.82035856988713 M 34.871560782569205 75.04235185819701 L 23.069235416333896 83.8203552487872 M 34.871560782569205 75.04235185819701 L 23.06923294625929 83.82035192768652 M 53.929387329620795 60.86805060751638 L 34.87126112851685 75.04194895431377 M 34.87126112851685 75.04194895431377 L 23.068755129527247 83.81970947277793 M 34.87126112851685 75.04194895431377 L 23.06875265952098 83.81970615162643 M 34.87126112851685 75.04194895431377 L 23.068750189515654 83.81970283047426 M 34.87126112851685 75.04194895431377 L 23.068747719511265 83.8196995093214 M 53.929387329620795 60.86805060751638 L 34.87096148298234 75.04154604409567 M 34.87096148298234 75.04154604409567 L 23.06826991636143 83.8190570443115 M 34.87096148298234 75.04154604409567 L 23.068267446425395 83.81905372310777 M 34.87096148298234 75.04154604409567 L 23.06826497649027 83.81905040190341 M 34.87096148298234 75.04154604409567 L 23.068262506556096 83.81904708069831 M 53.929387329620795 60.86805060751638 L 34.870661845965785 75.04114312754282 M 34.870661845965785 75.04114312754282 L 23.067784716988683 83.81840460558729 M 34.870661845965785 75.04114312754282 L 23.06778224712285 83.81840128433137 M 34.870661845965785 75.04114312754282 L 23.067779777257954 83.81839796307477 M 34.870661845965785 75.04114312754282 L 23.067777307393982 83.81839464181749 M 84.70377674068367 37.9810451410803 L 53.893074531413916 60.819142527161176 M 53.893074531413916 60.819142527161176 L 34.81275886588723 74.96315619890257 M 34.81275886588723 74.96315619890257 L 22.996511142486227 83.7224094384724 M 34.81275886588723 74.96315619890257 L 22.9965086776878 83.72240611345407 M 34.81275886588723 74.96315619890257 L 22.996506212890296 83.72240278843506 M 34.81275886588723 74.96315619890257 L 22.996503748093744 83.72239946341537 M 53.893074531413916 60.819142527161176 L 34.812459852148336 74.96275281958461 M 34.812459852148336 74.96275281958461 L 22.996026952380717 83.72175625039696 M 34.812459852148336 74.96275281958461 L 22.996024487652576 83.72175292532657 M 34.812459852148336 74.96275281958461 L 22.996022022925374 83.72174960025549 M 34.812459852148336 74.96275281958461 L 22.996019558199123 83.72174627518368 M 53.893074531413916 60.819142527161176 L 34.81216084693733 74.96234943394526 M 34.81216084693733 74.96234943394526 L 22.995542776084335 83.72110305208545 M 34.81216084693733 74.96234943394526 L 22.995540311426495 83.72109972696293 M 34.81216084693733 74.96234943394526 L 22.995537846769594 83.72109640183973 M 34.81216084693733 74.96234943394526 L 22.99553538211363 83.72109307671585 M 53.893074531413916 60.819142527161176 L 34.811861850254374 74.96194604198476 M 34.811861850254374 74.96194604198476 L 22.995058613597323 83.72044984353815 M 34.811861850254374 74.96194604198476 L 22.995056149009784 83.7204465183635 M 34.811861850254374 74.96194604198476 L 22.99505368442317 83.72044319318817 M 34.811861850254374 74.96194604198476 L 22.995051219837507 83.72043986801216 M 84.70377674068367 37.9810451410803 L 53.85683946011015 60.77017683258575 M 53.85683946011015 60.77017683258575 L 34.75408281048182 74.88386724394277 M 34.75408281048182 74.88386724394277 L 22.923937598896813 83.6243415931132 M 34.75408281048182 74.88386724394277 L 22.923935139382635 83.62433826418422 M 34.75408281048182 74.88386724394277 L 22.92393267986941 83.62433493525455 M 34.75408281048182 74.88386724394277 L 22.92393022035712 83.6243316063242 M 53.85683946011015 60.77017683258575 L 34.75378443781074 74.88346339020765 M 34.75378443781074 74.88346339020765 L 22.92345444686596 83.62368763681863 M 34.75378443781074 74.88346339020765 L 22.92345198742217 83.62368430783764 M 34.75378443781074 74.88346339020765 L 22.923449527979315 83.62368097885596 M 34.75378443781074 74.88346339020765 L 22.9234470685374 83.62367764987366 M 53.85683946011015 60.77017683258575 L 34.753486073677564 74.88305953016473 M 34.753486073677564 74.88305953016473 L 22.922971308660465 83.62303367030987 M 34.753486073677564 74.88305953016473 L 22.922968849287045 83.62303034127692 M 34.753486073677564 74.88305953016473 L 22.922966389914578 83.62302701224328 M 34.753486073677564 74.88305953016473 L 22.922963930543034 83.62302368320891 M 53.85683946011015 60.77017683258575 L 34.753187718082444 74.88265566381423 M 34.753187718082444 74.88265566381423 L 22.922488184280553 83.62237969358736 M 34.753187718082444 74.88265566381423 L 22.92248572497752 83.6223763645024 M 34.753187718082444 74.88265566381423 L 22.922483265675424 83.62237303541676 M 34.753187718082444 74.88265566381423 L 22.922480806374267 83.62236970633037 M 134.42611748671283 1.0636827590220435 L 80.66250758401928 31.799282065745075 M 80.66250758401928 31.799282065745075 L 47.41267676789029 50.912806427913694 M 47.41267676789029 50.912806427913694 L 26.821759653596914 62.7502766405415 M 26.821759653596914 62.7502766405415 L 14.070010739765038 70.08111064591097 M 26.821759653596914 62.7502766405415 L 14.070008676914867 70.08110705764855 M 26.821759653596914 62.7502766405415 L 14.07000661406569 70.08110346938557 M 26.821759653596914 62.7502766405415 L 14.070004551217522 70.08109988112201 M 47.41267676789029 50.912806427913694 L 26.821509402734605 62.74984132617678 M 26.821509402734605 62.74984132617678 L 14.069605510896594 70.08040574571643 M 26.821509402734605 62.74984132617678 L 14.06960344812228 70.08040215741036 M 26.821509402734605 62.74984132617678 L 14.06960138534896 70.08039856910378 M 26.821509402734605 62.74984132617678 L 14.069599322576664 70.08039498079657 M 47.41267676789029 50.912806427913694 L 26.821259161075332 62.74940600652164 M 26.821259161075332 62.74940600652164 L 14.069200296930518 70.07970083695508 M 26.821259161075332 62.74940600652164 L 14.069198234232061 70.07969724860547 M 26.821259161075332 62.74940600652164 L 14.0691961715346 70.07969366025523 M 26.821259161075332 62.74940600652164 L 14.069194108838161 70.07969007190448 M 47.41267676789029 50.912806427913694 L 26.82100892861918 62.748970681576196 M 26.82100892861918 62.748970681576196 L 14.068795097866982 70.07899591962726 M 26.82100892861918 62.748970681576196 L 14.068793035244383 70.07899233123405 M 26.82100892861918 62.748970681576196 L 14.068790972622779 70.07898874284021 M 26.82100892861918 62.748970681576196 L 14.068788910002198 70.0789851544458 M 80.66250758401928 31.799282065745075 L 47.382360542662965 50.8599713436835 M 47.382360542662965 50.8599713436835 L 26.772667851311 62.66472190481707 M 26.772667851311 62.66472190481707 L 14.009291399121253 69.97529295743547 M 26.772667851311 62.66472190481707 L 14.00928934197293 69.97528936590115 M 26.772667851311 62.66472190481707 L 14.009287284825632 69.9752857743662 M 26.772667851311 62.66472190481707 L 14.009285227679342 69.97528218283074 M 47.382360542662965 50.8599713436835 L 26.772418292177676 62.66428619352595 M 26.772418292177676 62.66428619352595 L 14.008887290362622 69.97458741450171 M 26.772418292177676 62.66428619352595 L 14.008885233290243 69.9745838229239 M 26.772418292177676 62.66428619352595 L 14.008883176218859 69.97458023134547 M 26.772418292177676 62.66428619352595 L 14.008881119148498 69.97457663976652 M 47.382360542662965 50.8599713436835 L 26.772168742255758 62.66385047695903 M 26.772168742255758 62.66385047695903 L 14.008483196519933 69.9738818630249 M 26.772168742255758 62.66385047695903 L 14.008481139523482 69.9738782714036 M 26.772168742255758 62.66385047695903 L 14.008479082528027 69.97387467978169 M 26.772168742255758 62.66385047695903 L 14.008477025533594 69.97387108815926 M 47.382360542662965 50.8599713436835 L 26.771919201545373 62.66341475511652 M 26.771919201545373 62.66341475511652 L 14.008079117593383 69.97317630300537 M 26.771919201545373 62.66341475511652 L 14.00807706067286 69.9731727113406 M 26.771919201545373 62.66341475511652 L 14.008075003753348 69.97316911967519 M 26.771919201545373 62.66341475511652 L 14.008072946834844 69.97316552800922 M 80.66250758401928 31.799282065745075 L 47.352128274066914 50.807088174591826 M 47.352128274066914 50.807088174591826 L 26.723711998226193 62.57908930410164 M 26.723711998226193 62.57908930410164 L 13.948740206156799 69.86937896141464 M 26.723711998226193 62.57908930410164 L 13.948738154715542 69.86937536661745 M 26.723711998226193 62.57908930410164 L 13.948736103275294 69.86937177181969 M 26.723711998226193 62.57908930410164 L 13.94873405183607 69.86936817702136 M 47.352128274066914 50.807088174591826 L 26.723463131451425 62.57865319698331 M 26.723463131451425 62.57865319698331 L 13.948337218527456 69.86867277752165 M 26.723463131451425 62.57865319698331 L 13.948335167162199 69.86866918268109 M 26.723463131451425 62.57865319698331 L 13.94833311579795 69.86866558783996 M 26.723463131451425 62.57865319698331 L 13.948331064434711 69.86866199299826 M 47.352128274066914 50.807088174591826 L 26.72321427389643 62.578217084603835 M 26.72321427389643 62.578217084603835 L 13.947934245827597 69.86796658510926 M 26.72321427389643 62.578217084603835 L 13.947932194538339 69.86796299022538 M 26.72321427389643 62.578217084603835 L 13.94793014325009 69.86795939534088 M 26.72321427389643 62.578217084603835 L 13.94792809196285 69.86795580045575 M 47.352128274066914 50.807088174591826 L 26.722965425561327 62.57778096696339 M 26.722965425561327 62.57778096696339 L 13.94753128805742 69.86726038417785 M 26.722965425561327 62.57778096696339 L 13.947529236844147 69.86725678925055 M 26.722965425561327 62.57778096696339 L 13.947527185631898 69.86725319432273 M 26.722965425561327 62.57778096696339 L 13.947525134420673 69.86724959939428 M 80.66250758401928 31.799282065745075 L 47.32198003836979 50.75415705404828 M 47.32198003836979 50.75415705404828 L 26.6748922178446 62.49337905442255 M 26.6748922178446 62.49337905442255 L 13.888357313625662 69.76336892504028 M 26.6748922178446 62.49337905442255 L 13.888355267896642 69.76336532698932 M 26.6748922178446 62.49337905442255 L 13.888353222168618 69.76336172893778 M 26.6748922178446 62.49337905442255 L 13.888351176441617 69.76335813088562 M 47.32198003836979 50.75415705404828 L 26.67464404405621 62.492942552577205 M 26.67464404405621 62.492942552577205 L 13.887955448142208 69.76266210196954 M 26.67464404405621 62.492942552577205 L 13.88795340248926 69.76265850387531 M 26.67464404405621 62.492942552577205 L 13.887951356837306 69.76265490578052 M 26.67464404405621 62.492942552577205 L 13.887949311186375 69.7626513076851 M 47.32198003836979 50.75415705404828 L 26.674395879495933 62.492506045485385 M 26.674395879495933 62.492506045485385 L 13.887553597601766 69.76195527040315 M 26.674395879495933 62.492506045485385 L 13.887551552024874 69.76195167226567 M 26.674395879495933 62.492506045485385 L 13.887549506449005 69.76194807412762 M 26.674395879495933 62.492506045485385 L 13.887547460874131 69.761944475989 M 47.32198003836979 50.75415705404828 L 26.674147724163888 62.492069533147145 M 26.674147724163888 62.492069533147145 L 13.887151762004507 69.76124843034134 M 26.674147724163888 62.492069533147145 L 13.887149716503686 69.76124483216066 M 26.674147724163888 62.492069533147145 L 13.887147671003873 69.76124123397935 M 26.674147724163888 62.492069533147145 L 13.887145625505084 69.76123763579747 M 134.42611748671283 1.0636827590220435 L 77.38588967417964 25.180382898277372 M 77.38588967417964 25.180382898277372 L 42.09712168998992 40.19973431578009 M 42.09712168998992 40.19973431578009 L 20.24343048182402 49.501763622371385 M 20.24343048182402 49.501763622371385 L 6.709657355826877 55.262424396078785 M 20.24343048182402 49.501763622371385 L 6.709655734813609 55.26242058775972 M 20.24343048182402 49.501763622371385 L 6.70965411380142 55.2624167794402 M 20.24343048182402 49.501763622371385 L 6.709652492790312 55.26241297112023 M 42.09712168998992 40.19973431578009 L 20.24323383289429 49.50130161231883 M 20.24323383289429 49.50130161231883 L 6.709338924032522 55.261676267806024 M 20.24323383289429 49.50130161231883 L 6.709337303099787 55.26167245945271 M 20.24323383289429 49.50130161231883 L 6.709335682168103 55.261668651098915 M 20.24323383289429 49.50130161231883 L 6.709334061237499 55.261664842744665 M 42.09712168998992 40.19973431578009 L 20.24303719373195 49.50083959810905 M 20.24303719373195 49.50083959810905 L 6.709020508054408 55.260928132801524 M 20.24303719373195 49.50083959810905 L 6.709018887202177 55.260924324413935 M 20.24303719373195 49.50083959810905 L 6.709017266351012 55.26092051602586 M 20.24303719373195 49.50083959810905 L 6.709015645500926 55.260916707637364 M 42.09712168998992 40.19973431578009 L 20.242840564337072 49.50037757974221 M 20.242840564337072 49.50037757974221 L 6.708702107892648 55.26017999106551 M 20.242840564337072 49.50037757974221 L 6.708700487120936 55.260176182643676 M 20.242840564337072 49.50037757974221 L 6.708698866350275 55.260172374221355 M 20.242840564337072 49.50037757974221 L 6.708697245580709 55.26016856579858 M 77.38588967417964 25.180382898277372 L 42.07331084459558 40.14366593539282 M 42.07331084459558 40.14366593539282 L 20.204872713479986 49.410973114294364 M 20.204872713479986 49.410973114294364 L 6.6619669543814695 55.150130820427734 M 20.204872713479986 49.410973114294364 L 6.661965339419041 55.15012700953881 M 20.204872713479986 49.410973114294364 L 6.661963724457692 55.150123198649425 M 20.204872713479986 49.410973114294364 L 6.661962109497409 55.15011938775959 M 42.07331084459558 40.14366593539282 L 20.20467679861261 49.410510792485496 M 20.20467679861261 49.410510792485496 L 6.66164971124698 55.14938218733087 M 20.20467679861261 49.410510792485496 L 6.661648096365113 55.14937837640781 M 20.20467679861261 49.410510792485496 L 6.6616464814843255 55.149374565484294 M 20.20467679861261 49.410510792485496 L 6.661644866604604 55.149370754560294 M 42.07331084459558 40.14366593539282 L 20.20448089351919 49.410048466534874 M 20.20448089351919 49.410048466534874 L 6.661332483939347 55.14863354752731 M 20.20448089351919 49.410048466534874 L 6.661330869138055 55.148629736570115 M 20.20448089351919 49.410048466534874 L 6.6613292543378435 55.148625925612436 M 20.20448089351919 49.410048466534874 L 6.661327639538683 55.14862211465433 M 42.07331084459558 40.14366593539282 L 20.20428499819984 49.40958613644278 M 20.20428499819984 49.40958613644278 L 6.661015272458783 55.14788490101748 M 20.20428499819984 49.40958613644278 L 6.661013657738053 55.14788109002615 M 20.20428499819984 49.40958613644278 L 6.6610120430184026 55.14787727903433 M 20.20428499819984 49.40958613644278 L 6.661010428299818 55.14787346804209 M 77.38588967417964 25.180382898277372 L 42.0495890830973 40.087559806769775 M 42.0495890830973 40.087559806769775 L 20.1664591970694 49.32012147912175 M 20.1664591970694 49.32012147912175 L 6.6144549698851876 55.03776163936925 M 20.1664591970694 49.32012147912175 L 6.614453360977663 55.03775782592007 M 20.1664591970694 49.32012147912175 L 6.6144517520712185 55.03775401247046 M 20.1664591970694 49.32012147912175 L 6.614450143165826 55.037750199020365 M 42.0495890830973 40.087559806769775 L 20.166264016758603 49.31965884672289 M 20.166264016758603 49.31965884672289 L 6.614138916210848 55.037012503336854 M 20.166264016758603 49.31965884672289 L 6.614137307383942 55.03700868985368 M 20.166264016758603 49.31965884672289 L 6.614135698558101 55.03700487637002 M 20.166264016758603 49.31965884672289 L 6.614134089733355 55.037001062885935 M 42.0495890830973 40.087559806769775 L 20.166068846228356 49.31919621019779 M 20.166068846228356 49.31919621019779 L 6.613822878374037 55.03626336062291 M 20.166068846228356 49.31919621019779 L 6.613821269627749 55.036259547105715 M 20.166068846228356 49.31919621019779 L 6.613819660882541 55.036255733588064 M 20.166068846228356 49.31919621019779 L 6.613818052138399 55.03625192006996 M 42.0495890830973 40.087559806769775 L 20.165873685478715 49.31873356954674 M 20.165873685478715 49.31873356954674 L 6.613506856374883 55.03551421122785 M 20.165873685478715 49.31873356954674 L 6.613505247709213 55.03551039767663 M 20.165873685478715 49.31873356954674 L 6.613503639044623 55.03550658412496 M 20.165873685478715 49.31873356954674 L 6.613502030381113 55.03550277057283 M 77.38588967417964 25.180382898277372 L 42.02595646533855 40.031416071451275 M 42.02595646533855 40.031416071451275 L 20.12819002949898 49.22920894604724 M 20.12819002949898 49.22920894604724 L 6.567121522197667 54.925317136379846 M 20.12819002949898 49.22920894604724 L 6.5671199193491105 54.92531332038004 M 20.12819002949898 49.22920894604724 L 6.567118316501606 54.92530950437978 M 20.12819002949898 49.22920894604724 L 6.567116713655196 54.92530568837907 M 42.02595646533855 40.031416071451275 L 20.12799558423717 49.22874600422546 M 20.12799558423717 49.22874600422546 L 6.566806658780806 54.92456749930179 M 20.12799558423717 49.22874600422546 L 6.5668050560129245 54.924563683268104 M 20.12799558423717 49.22874600422546 L 6.566803453246095 54.92455986723394 M 20.12799558423717 49.22874600422546 L 6.56680185048036 54.924556051199346 M 42.02595646533855 40.031416071451275 L 20.127801148762416 49.22828305829299 M 20.127801148762416 49.22828305829299 L 6.566491811212046 54.923817855567336 M 20.127801148762416 49.22828305829299 L 6.566490208524826 54.923814039499774 M 20.127801148762416 49.22828305829299 L 6.5664886058386855 54.92381022343173 M 20.127801148762416 49.22828305829299 L 6.566487003153625 54.92380640736326 M 42.02595646533855 40.031416071451275 L 20.127606723074834 49.227820108250086 M 20.127606723074834 49.227820108250086 L 6.5661769794915585 54.92306820517689 M 20.127606723074834 49.227820108250086 L 6.566175376885013 54.92306438907545 M 20.127606723074834 49.227820108250086 L 6.566173774279548 54.923060572973526 M 20.127606723074834 49.227820108250086 L 6.566172171675149 54.923056756871176 M 134.42611748671283 1.0636827590220435 L 74.92052460608498 18.218484723411308 M 74.92052460608498 18.218484723411308 L 38.094712843933536 28.930050944230885 M 38.094712843933536 28.930050944230885 L 15.289060976117511 35.564341526239645 M 15.289060976117511 35.564341526239645 L 1.165747299557566 39.67289825204844 M 15.289060976117511 35.564341526239645 L 1.1657461434360528 39.672894277836434 M 15.289060976117511 35.564341526239645 L 1.165744987315648 39.672890303624115 M 15.289060976117511 35.564341526239645 L 1.165743831196366 39.672886329411455 M 38.094712843933536 28.930050944230885 L 15.288920725953574 35.56385939142271 M 15.288920725953574 35.56385939142271 L 1.165520193723495 39.67211753592835 M 15.288920725953574 35.56385939142271 L 1.1655190376859963 39.6721135616919 M 15.288920725953574 35.56385939142271 L 1.1655178816496061 39.67210958745511 M 15.288920725953574 35.56385939142271 L 1.1655167256143386 39.67210561321804 M 38.094712843933536 28.930050944230885 L 15.288780485982443 35.563377253640795 M 15.288780485982443 35.563377253640795 L 1.1652931043945358 39.671336815007095 M 15.288780485982443 35.563377253640795 L 1.1652919484410518 39.67133284074623 M 15.288780485982443 35.563377253640795 L 1.1652907924886904 39.671328866485 M 15.288780485982443 35.563377253640795 L 1.1652896365374374 39.67132489222348 M 38.094712843933536 28.930050944230885 L 15.288640256204204 35.56289511289424 M 15.288640256204204 35.56289511289424 L 1.1650660315708166 39.67055608928521 M 15.288640256204204 35.56289511289424 L 1.1650648757013613 39.67055211499991 M 15.288640256204204 35.56289511289424 L 1.1650637198330145 39.67054814071426 M 15.288640256204204 35.56289511289424 L 1.1650625639657903 39.67054416642827 M 74.92052460608498 18.218484723411308 L 38.07774602737014 28.8715466984589 M 38.07774602737014 28.8715466984589 L 15.261585628360038 35.46960651094878 M 15.261585628360038 35.46960651094878 L 1.1317641125416174 39.55572588106128 M 15.261585628360038 35.46960651094878 L 1.1317629627338306 39.555721905018004 M 15.261585628360038 35.46960651094878 L 1.1317618129271523 39.55571792897442 M 15.261585628360038 35.46960651094878 L 1.1317606631215966 39.55571395293049 M 38.07774602737014 28.8715466984589 L 15.261446144151634 35.46912415397949 M 15.261446144151634 35.46912415397949 L 1.1315382470117186 39.554944805211875 M 15.261446144151634 35.46912415397949 L 1.131537097287989 39.5549408291443 M 15.261446144151634 35.46912415397949 L 1.1315359475653821 39.554936853076384 M 15.261446144151634 35.46912415397949 L 1.1315347978438837 39.554932877008156 M 38.07774602737014 28.8715466984589 L 15.26130667014074 35.46864179406148 M 15.26130667014074 35.46864179406148 L 1.131312397994563 39.554163724587625 M 15.26130667014074 35.46864179406148 L 1.1313112483548906 39.55415974849575 M 15.26130667014074 35.46864179406148 L 1.1313100987163267 39.55415577240353 M 15.26130667014074 35.46864179406148 L 1.1313089490788997 39.554151796311004 M 38.07774602737014 28.8715466984589 L 15.261167206327428 35.46815943119498 M 15.261167206327428 35.46815943119498 L 1.13108656549025 39.5533826391889 M 15.261167206327428 35.46815943119498 L 1.1310854159346349 39.55337866307272 M 15.261167206327428 35.46815943119498 L 1.1310842663801424 39.553374686956204 M 15.261167206327428 35.46815943119498 L 1.1310831168267583 39.553370710839374 M 74.92052460608498 18.218484723411308 L 38.060872154974675 28.81301557795001 M 38.060872154974675 28.81301557795001 L 15.23426078364976 35.37482797583604 M 15.23426078364976 35.37482797583604 L 1.0979670742150773 39.438499682100144 M 15.23426078364976 35.37482797583604 L 1.0979659307239302 39.438495704235635 M 15.23426078364976 35.37482797583604 L 1.0979647872338774 39.43849172637081 M 15.23426078364976 35.37482797583604 L 1.0979636437449614 39.43848774850565 M 38.060872154974675 28.81301557795001 L 15.234122065748764 35.37434539793131 M 15.234122065748764 35.37434539793131 L 1.0977424495591777 39.43771824849193 M 15.234122065748764 35.37434539793131 L 1.0977413061521162 39.43771427060324 M 15.234122065748764 35.37434539793131 L 1.0977401627461632 39.43771029271426 M 15.234122065748764 35.37434539793131 L 1.097739019341347 39.437706314824936 M 38.060872154974675 28.81301557795001 L 15.233983358049954 35.37386281709402 M 15.233983358049954 35.37386281709402 L 1.097517841423553 39.43693681013508 M 15.233983358049954 35.37386281709402 L 1.0975166981005913 39.436932832222226 M 15.233983358049954 35.37386281709402 L 1.0975155547787523 39.43692885430906 M 15.233983358049954 35.37386281709402 L 1.0975144114580218 39.43692487639555 M 38.060872154974675 28.81301557795001 L 15.233844660553402 35.37338023332444 M 15.233844660553402 35.37338023332444 L 1.0972932498083594 39.43615536702998 M 15.233844660553402 35.37338023332444 L 1.0972921065694976 39.43615138909297 M 15.233844660553402 35.37338023332444 L 1.0972909633317443 39.436147411155616 M 15.233844660553402 35.37338023332444 L 1.0972898200951136 39.43614343321795 M 74.92052460608498 18.218484723411308 L 38.044091269315274 28.754457730362077 M 38.044091269315274 28.754457730362077 L 15.207086510919737 35.280006160001534 M 15.207086510919737 35.280006160001534 L 1.0643562698385978 39.3212199508944 M 15.207086510919737 35.280006160001534 L 1.064355132666961 39.32121597121869 M 15.207086510919737 35.280006160001534 L 1.0643539954964325 39.32121199154267 M 15.207086510919737 35.280006160001534 L 1.0643528583270268 39.32120801186633 M 38.044091269315274 28.754457730362077 L 15.206948559676107 35.27952336237874 M 15.206948559676107 35.27952336237874 L 1.0641328866233408 39.320438161498714 M 15.206948559676107 35.27952336237874 L 1.0641317495358322 39.32043418179896 M 15.206948559676107 35.27952336237874 L 1.0641306124494463 39.32043020209889 M 15.206948559676107 35.27952336237874 L 1.0641294753641688 39.32042622239851 M 38.044091269315274 28.754457730362077 L 15.206810618639295 35.279040561839594 M 15.206810618639295 35.279040561839594 L 1.0639095199358906 39.31965636738059 M 15.206810618639295 35.279040561839594 L 1.0639083829325244 39.31965238765682 M 15.206810618639295 35.279040561839594 L 1.0639072459302668 39.3196484079327 M 15.206810618639295 35.279040561839594 L 1.0639061089291317 39.319644428208306 M 38.044091269315274 28.754457730362077 L 15.206672687809387 35.27855775838438 M 15.206672687809387 35.27855775838438 L 1.0636861697763749 39.31887456854054 M 15.206672687809387 35.27855775838438 L 1.063685032857137 39.31887058879272 M 15.206672687809387 35.27855775838438 L 1.0636838959390218 39.31886660904456 M 15.206672687809387 35.27855775838438 L 1.0636827590220292 39.31886262929612"></path></svg>