<svg width="100%" height="100%" xmlns="http://www.w3.org/2000/svg"><polygon stroke="black" fill="yellow" points="195.25,200.0 199.0733209704234,195.34126991808466 286.76641267283543,223.70074511828267 367.29218157061683,223.70074511828267 436.40842615185124,200.83582442780593 489.22825089820657,161.59359178704142 523.4063512431858,112.93512352845397 538.9146000655087,61.50234503895568 537.6226953006499,13.001425133597557 522.7616572116074,-28.20678959956641 498.3459448851352,-59.30489130725079 406.6871091495909,-85.9869059951154 402.8637881791675,-90.64563607703074 406.68710914959087,-95.3043661589461 437.8438966376474,-97.0139857516234 471.85278653875525,-87.96723479243825 504.234349898396,-66.79710094234437 530.706437867763,-33.47140182664567 530.9198263260499,-33.177083243726976 576.5450932253367,40.87798165179126 601.9832365307853,57.75262831952329 623.8875354726958,85.29561917768503 637.2417909295107,121.60509074552328 638.4084716404367,165.62914866283575 624.6736232899777,210.39554793741846 597.1534891163132,296.83065706676166 607.4938252746397,325.5522614411148 608.4642864829672,362.2098116728221 597.0779157339985,399.1875347629522 572.4158865785024,433.86804069551874 534.6864789004736,461.59580301967173 485.6852160518251,477.5756844298994 428.9427667000739,477.33532105823866 369.6952062476726,457.48196725682396 314.59256217283894,416.24428521564647 271.20762580582084,354.06010484884604 247.73996913455048,276.2301189445927 195.25,200.0 "></polygon><path stroke="black" d=" M 0.0 0.0 M 200.0 200.0 L 286.00111431537107 228.45074511828267 M 286.00111431537107 228.45074511828267 L 368.0574799280812 228.45074511828267 M 368.0574799280812 228.45074511828267 L 438.6268687217069 205.10509768448438 M 438.6268687217069 205.10509768448438 L 492.67531880216876 164.95006381007562 M 492.67531880216876 164.95006381007562 L 527.733181801785 115.03910045159492 M 527.733181801785 115.03910045159492 L 543.6832936654104 62.14089255182741 M 543.6832936654104 62.14089255182741 L 542.3506333009742 12.109918632764682 M 542.3506333009742 12.109918632764682 L 526.9703456676128 -30.538124636883865 M 526.9703456676128 -30.538124636883865 L 501.60944082943024 -62.840110649456854 M 501.60944082943024 -62.840110649456854 L 470.60862435955187 -83.4048121710634 M 470.60862435955187 -83.4048121710634 L 438.0967659343455 -92.27072135684342 M 438.0967659343455 -92.27072135684342 L 407.6137881791675 -90.64563607703074 M 286.00111431537107 228.45074511828267 L 351.86858197237154 277.38666078378094 M 351.86858197237154 277.38666078378094 L 422.43797076599725 300.73230821757926 M 422.43797076599725 300.73230821757926 L 489.77044214166483 300.73230821757926 M 489.77044214166483 300.73230821757926 L 547.6771178208172 281.57571840464743 M 547.6771178208172 281.57571840464743 L 592.0273116268442 248.625956996755 M 592.0273116268442 248.625956996755 L 620.7945198658123 207.6708344224943 M 620.7945198658123 207.6708344224943 L 633.882601972265 164.26448754568955 M 633.882601972265 164.26448754568955 L 632.7890693112477 123.21088866706378 M 632.7890693112477 123.21088866706378 L 620.1685642585302 88.21545435505416 M 620.1685642585302 88.21545435505416 L 599.3583274618196 61.709618612410786 M 599.3583274618196 61.709618612410786 L 573.920184156371 44.834971944678756 M 200.0 200.0 L 252.06679969314973 274.12614202145176 M 252.06679969314973 274.12614202145176 L 317.9342673501502 323.06205768695 M 317.9342673501502 323.06205768695 L 388.5036561437759 346.40770512074835 M 388.5036561437759 346.40770512074835 L 455.8361275194435 346.40770512074835 M 455.8361275194435 346.40770512074835 L 513.7428031985959 327.2511153078165 M 513.7428031985959 327.2511153078165 L 558.0929970046228 294.3013538999241 M 558.0929970046228 294.3013538999241 L 586.8602052435909 253.34623132566338 M 586.8602052435909 253.34623132566338 L 599.9482873500436 209.93988444885863 M 599.9482873500436 209.93988444885863 L 598.8547546890263 168.88628557023287 M 598.8547546890263 168.88628557023287 L 586.2342496363088 133.89085125822325 M 586.2342496363088 133.89085125822325 L 565.4240128395983 107.38501551557988 M 565.4240128395983 107.38501551557988 L 539.9858695341496 90.51036884784784 M 252.06679969314973 274.12614202145176 L 275.7553878850713 352.68884263083964 M 275.7553878850713 352.68884263083964 L 318.47951140411965 413.51406074255885 M 318.47951140411965 413.51406074255885 L 372.5279614845815 453.6690946169676 M 372.5279614845815 453.6690946169676 L 430.4346371637339 472.8256844298994 M 430.4346371637339 472.8256844298994 L 485.6852160518251 472.8256844298994 M 485.6852160518251 472.8256844298994 L 533.2013295612767 457.1064830540729 M 533.2013295612767 457.1064830540729 L 569.5934867406957 430.069106364697 M 569.5934867406957 430.069106364697 L 593.198812309833 396.46282124802804 M 593.198812309833 396.46282124802804 L 603.9384168147955 360.84515055567596 M 603.9384168147955 360.84515055567596 L 603.0411036563767 327.1580593626553 M 603.0411036563767 327.1580593626553 L 592.6851758881483 298.44207783583687"></path></svg>