<svg width="100%" height="100%" xmlns="http://www.w3.org/2000/svg"><polygon stroke="black" fill="yellow" points="-25.420274718038044,130.25671042553722 -25.276164321062275,128.79353301041627 -24.849371211872697,127.38658468279905 -24.156296810307133,126.0899336778902 -23.22357557693715,124.95340956663811 -22.087051465685057,124.02068833326813 4.174614214350688,107.80753367245504 5.47126521925953,107.11445927088948 6.878213546876742,106.68766616169991 8.341390961997703,106.54355576472413 9.804568377118667,106.68766616169991 39.69648599084583,108.37246979652072 41.15966340596679,108.5165801934965 80.04010194752237,110.95513223589194 81.50327936264334,110.81102183891616 82.96645677776431,110.95513223589194 84.37340510538151,111.38192534508151 134.37554478230186,114.63332806827547 172.56558018648116,57.46165126006206 172.70969058345693,55.998473844941095 173.1364836926465,54.59152551732389 173.82955809421208,53.294874512415035 189.26215427840552,17.53068922296096 189.68894738759508,16.123740895343747 190.38202178916066,14.827089890434902 202.10329515880653,-12.727097571141355 202.7963695603721,-14.0237485760502 203.7290907937421,-15.16027268730229 204.86561490499417,-16.092993920672274 231.12728058502992,-32.30614858148538 232.42393158993877,-32.99922298305094 233.830879917556,-33.426016092240516 235.29405733267694,-33.57012648921629 236.7572347477979,-33.426016092240516 238.1641830754151,-32.99922298305094 239.46083408032396,-32.30614858148538 240.59735819157606,-31.373427348115396 260.6673677303765,-7.926973768567996 261.6000889637465,-6.790449657315907 262.29316336531207,-5.493798652407063 262.71995647450166,-4.086850324789852 262.8640668714774,-2.6236729096688904 265.7495004429023,27.175087781273344 265.893610839878,28.638265196394308 269.7888924007698,68.85767192269094 269.93300279774553,70.32084933781191 269.7888924007698,71.78402675293285 269.3620992915802,73.19097508055006 274.05488083383796,121.73085144538835 336.2943056270115,150.96152625555817 337.7574830421325,150.8174158585824 339.2206604572535,150.96152625555817 340.6276087848707,151.38831936474773 378.3181122815994,161.2380618939368 379.78128969672036,161.38217229091256 381.1882380243376,161.80896540010212 410.2017616263205,169.19765681742837 411.6087099539377,169.62444992661793 412.90536095884653,170.3175243281835 414.0418850700986,171.2502455615535 434.1118946088991,194.6966991411009 435.0446158422691,195.83322325235298 435.73769024383466,197.12987425726183 436.16448335302425,198.53682258487905 436.30859375,200.0 436.16448335302425,201.46317741512092 435.73769024383466,202.87012574273814 435.0446158422691,204.166776747647 434.11189460889915,205.3033008588991 414.04188507009866,228.7497544384465 412.90536095884653,229.6824756718165 411.6087099539377,230.37555007338204 410.2017616263205,230.80234318257163 381.1882380243376,238.19103459989785 379.78128969672036,238.61782770908744 378.3181122815994,238.7619381060632 340.6276087848707,248.61168063525224 339.2206604572535,249.03847374444183 337.7574830421325,249.1825841414176 336.29430562701157,249.03847374444183 274.05488083383796,278.26914855461166 269.3620992915802,326.80902491944994 269.7888924007698,328.21597324706715 269.93300279774553,329.67915066218814 269.7888924007698,331.14232807730906 265.893610839878,371.3617348036057 265.7495004429023,372.82491221872664 262.8640668714774,402.6236729096689 262.71995647450166,404.08685032478985 262.29316336531207,405.49379865240707 261.6000889637465,406.79044965731595 260.66736773037655,407.926973768568 240.59735819157606,431.3734273481154 239.460834080324,432.3061485814854 238.16418307541514,432.99922298305097 236.75723474779792,433.4260160922405 235.29405733267697,433.5701264892163 233.830879917556,433.42601609224056 232.42393158993877,432.99922298305097 231.12728058502995,432.3061485814854 206.16226590990303,416.7860683222379 128.89397643530558,404.473224693333 100.34703173974476,411.4832159094698 98.94008341212755,411.91000901865937 97.47690599700658,412.0541194156351 96.01372858188563,411.91000901865937 94.60678025426841,411.4832159094698 93.31012924935956,410.7901415079042 92.17360513810748,409.8574202745342 91.24088390473749,408.72089616328213 90.54780950317192,407.4242451583733 78.57959997958855,378.97598635146176 78.15280687039898,377.56903802384454 78.0086964734232,376.10586060872356 78.15280687039898,374.6426831936026 78.57959997958855,373.23573486598536 84.79640064112402,343.94497036978817 85.2231937503136,342.53802204217095 93.51041527178165,304.4778640198232 93.65452566875743,303.0146866047022 94.081318777947,301.607738277085 94.77439317951256,300.31108727217617 97.12886346932827,231.59329249251192 54.62951322494039,205.06497982900646 53.222564897323174,204.6381867198169 51.92591389241433,203.94511231825135 50.789389781162235,203.01239108488136 17.768418706171172,182.35011758065494 16.471767701262326,181.65704317908938 -8.82219093719283,165.63406572628347 -10.118841942101678,164.9409913247179 -11.25536605335377,164.00827009134792 -12.188087286723755,162.87174598009582 -12.88116168828932,161.57509497518697 -24.849371211872693,133.12683616827542 -25.27616432106227,131.7198878406582 -25.420274718038044,130.25671042553722 "></polygon><path stroke="black" d=" M 0.0 0.0 M 200.0 200.0 L 211.56885874156887 274.10237180696464 M 211.56885874156887 274.10237180696464 L 157.99562859321637 291.24796924396446 M 211.56885874156887 274.10237180696464 L 220.24550279774553 329.67915066218814 M 220.24550279774553 329.67915066218814 L 180.06558018648116 342.538348739938 M 220.24550279774553 329.67915066218814 L 226.75298583987802 371.3617348036057 M 226.75298583987802 371.3617348036057 L 196.61804388142974 381.0061333619181 M 226.75298583987802 371.3617348036057 L 231.6335981214774 402.6236729096689 M 231.6335981214774 402.6236729096689 L 209.0323916526412 409.85697182840323 M 231.6335981214774 402.6236729096689 L 235.29405733267694 426.0701264892163 M 231.6335981214774 402.6236729096689 L 255.3640668714774 402.6236729096689 M 226.75298583987802 371.3617348036057 L 258.393610839878 371.3617348036057 M 220.24550279774553 329.67915066218814 L 262.43300279774553 329.67915066218814 M 211.56885874156887 274.10237180696464 L 267.8188587415689 274.10237180696464 M 200.0 200.0 L 275.0 200.0 M 275.0 200.0 L 283.67664405617666 255.57677885522347 M 275.0 200.0 L 331.25 200.0 M 331.25 200.0 L 337.7574830421325 241.6825841414176 M 331.25 200.0 L 373.4375 200.0 M 373.4375 200.0 L 378.3181122815994 231.2619381060632 M 373.4375 200.0 L 405.078125 200.0 M 405.078125 200.0 L 408.7385842111995 223.4464535795474 M 405.078125 200.0 L 428.80859375 200.0 M 405.078125 200.0 L 408.7385842111995 176.5535464204526 M 373.4375 200.0 L 378.3181122815994 168.7380618939368 M 331.25 200.0 L 337.7574830421325 158.3174158585824 M 275.0 200.0 L 283.67664405617666 144.42322114477653 M 200.0 200.0 L 211.56885874156887 125.89762819303537 M 211.56885874156887 125.89762819303537 L 267.8188587415689 125.89762819303537 M 211.56885874156887 125.89762819303537 L 220.24550279774553 70.32084933781191 M 220.24550279774553 70.32084933781191 L 262.43300279774553 70.32084933781191 M 220.24550279774553 70.32084933781191 L 226.75298583987802 28.638265196394308 M 226.75298583987802 28.638265196394308 L 258.393610839878 28.638265196394308 M 226.75298583987802 28.638265196394308 L 231.6335981214774 -2.6236729096688904 M 231.6335981214774 -2.6236729096688904 L 255.3640668714774 -2.6236729096688904 M 231.6335981214774 -2.6236729096688904 L 235.29405733267694 -26.07012648921629 M 231.6335981214774 -2.6236729096688904 L 209.0323916526412 -9.856971828403184 M 226.75298583987802 28.638265196394308 L 196.61804388142974 18.99386663808192 M 220.24550279774553 70.32084933781191 L 180.06558018648116 57.461651260062055 M 211.56885874156887 125.89762819303537 L 157.99562859321637 108.75203075603557 M 200.0 200.0 L 128.56902646886334 177.1392034173336 M 128.56902646886334 177.1392034173336 L 137.24567052504003 121.56242456211012 M 128.56902646886334 177.1392034173336 L 74.99579632051083 159.99360598033377 M 74.99579632051083 159.99360598033377 L 81.50327936264334 118.31102183891616 M 74.99579632051083 159.99360598033377 L 34.81587370924645 147.13440790258392 M 34.81587370924645 147.13440790258392 L 39.69648599084583 115.87246979652072 M 34.81587370924645 147.13440790258392 L 4.68093175079817 137.49000934427153 M 4.68093175079817 137.49000934427153 L 8.341390961997703 114.04355576472413 M 4.68093175079817 137.49000934427153 L -17.920274718038044 130.25671042553722 M 4.68093175079817 137.49000934427153 L -5.952065194454672 158.7049692324488 M 34.81587370924645 147.13440790258392 L 20.638544448909332 175.42102108682028 M 74.99579632051083 159.99360598033377 L 56.092690640061335 197.70909022598224 M 128.56902646886334 177.1392034173336 L 103.36488556159735 227.4265157448649 M 200.0 200.0 L 166.394478790312 267.04974977004173 M 166.394478790312 267.04974977004173 L 112.8212486419595 249.9041523330419 M 166.394478790312 267.04974977004173 L 141.19033788304603 317.33706209757304 M 141.19033788304603 317.33706209757304 L 101.01041527178165 304.4778640198232 M 141.19033788304603 317.33706209757304 L 122.28723220259653 355.05254634322154 M 122.28723220259653 355.05254634322154 L 92.15229024414825 345.40814778490915 M 122.28723220259653 355.05254634322154 L 108.10990294225941 383.33915952745787 M 108.10990294225941 383.33915952745787 L 85.5086964734232 376.10586060872356 M 108.10990294225941 383.33915952745787 L 97.47690599700657 404.5541194156351 M 108.10990294225941 383.33915952745787 L 127.4307990201846 397.11733509030876 M 122.28723220259653 355.05254634322154 L 148.04842697316343 373.4234470936894 M 141.19033788304603 317.33706209757304 L 175.53859757713525 341.8315964315302 M 166.394478790312 267.04974977004173 L 212.19215838243096 299.7091288819846"></path></svg>