<svg width="100%" height="100%" xmlns="http://www.w3.org/2000/svg"><polygon stroke="black" fill="yellow" points="-47.35418225138327,299.4818505682154 -37.62527184109858,294.1193394991168 -26.856329024907872,293.1089816659991 -16.08738620871717,292.09862383288146 -5.318443392526461,291.08826599976385 10.8349708317596,289.5727292500874 21.603913647950304,288.5623714169697 26.891502922779964,288.02716992436245 32.17909219760962,287.4919684317552 37.46668147243929,286.95676693914794 42.75427074726895,286.4215654465407 48.041860022098604,285.8863639539334 53.32944929692827,285.35116246132617 58.61703857175793,284.8159609687189 63.90462784658759,284.28075947611165 69.19221712141726,283.74555798350434 74.47980639624691,283.2103564908971 79.76739567107657,282.6751549982898 85.05498494590623,282.13995350568257 90.3425742207359,281.6047520130753 87.3028700505796,271.4974436430281 82.68335307226575,268.8696872113829 64.2052851590103,258.3586614848021 59.58576818069644,255.7309050531569 54.96625120238258,253.1031486215117 41.107700267441004,245.21987932657612 30.016046841106434,236.7403675770291 35.17563030825481,233.29284412371896 35.6187918373332,233.52971889603634 40.1899630720757,236.2404293032374 49.31674448867596,241.68855052816724 72.1336980301766,255.30885359049182 76.69708873847674,258.0329142029567 81.26047944677686,260.75697481542164 85.82387015507699,263.4810354278866 90.38726086337712,266.20509604035146 91.92238702889347,274.1252000746733 96.54190400720732,276.75295650631847 102.84631266973003,280.3391432198719 108.64082369657763,277.1013384902111 118.05994343212888,272.86718748684336 126.21612878775642,265.53990411080395 142.52849949901153,250.88533735872514 146.6065921768253,247.22169567070546 162.9189628880804,232.56712891862665 171.07514824370796,225.23984554258726 179.2313335993355,217.91256216654787 187.38751895496307,210.58527879050848 195.5437043105906,203.2579954144691 200.01122494275953,189.0116098093577 200.57569666231498,178.0620064875036 201.14016838187047,167.11240316564948 201.70464010142595,156.16279984379537 202.2691118209814,145.21319652194126 202.8335835405369,134.26359320008714 203.39805526009235,123.31398987823303 203.96252697964783,112.36438655637892 204.52699869920332,101.4147832345248 205.09147041875877,90.46517991267069 205.65594213831426,79.51557659081658 211.0054214513001,78.6448528406485 210.24168825350569,90.82624993018378 209.7572661796702,96.28687677711399 209.2728441058347,101.74750362404421 208.78842203199923,107.20813047097442 208.30399995816376,112.66875731790465 207.81957788432825,118.12938416483487 207.33515581049278,123.59001101176509 206.85073373665728,129.05063785869532 206.3663116628218,134.51126470562554 205.88188958898633,139.97189155255575 205.39746751515082,145.43251839948596 204.91304544131535,150.89314524641617 204.42862336747984,156.3537720933464 203.94420129364437,161.81439894027662 202.9753571459734,172.73565263413707 202.0065129983024,183.6569063279975 201.52209092446694,189.1175331749277 201.03766885063143,194.57816002185794 200.22003812090279,200.55867304611067 210.96226988527602,200.75728722656174 221.92453977055206,199.0400302865114 232.88680965582807,198.83734779958456 243.84907954110412,198.63466531265772 265.77361931165615,198.22930033880402 276.7358891969322,198.02661785187718 287.69815908220824,197.82393536495033 309.62269885276027,197.41857039109664 320.5849687380363,197.2158879041698 298.6604289674842,202.37874712197652 254.81134942638013,201.56801717426913 157.03955714106047,242.336400157299 153.0996802437391,246.1482868740034 149.15980334641773,249.9601735907078 137.3401726544536,261.395833740821 133.40029575713223,265.2077204575254 129.46041885981083,269.0196071742298 115.21227556326063,282.80488767544193 106.00298443706427,291.59668924968173 112.7334195242984,293.20738716157496 121.49463564830333,295.22877197246186 116.19952360735132,297.83697723907795 126.29112591229446,304.71422636618325 131.0876161762856,314.1996807599047 135.88410644027672,323.6851351536261 140.68059670426786,333.17058954734756 145.47708696825902,342.65604394106896 150.27357723225015,352.1414983347904 148.37504466634397,364.92470991853975 143.77854165791643,355.34074810718806 139.18203864948893,345.7567862958364 134.5855356410614,336.1728244844847 129.9890326326339,326.588862673133 125.39252962420636,317.0049008617813 120.79602661577884,307.42093905042964 110.92605115431371,303.681812371729 109.11868278432904,314.156237581883 107.31131441434435,324.630662792037 105.50394604435967,335.105088002191 103.69657767437498,345.579513212345 101.8892093043903,356.05393842249896 100.08184093440562,366.528363632653 98.29764607506831,377.1015334184705 96.53662472637838,387.7734477799516 95.6561140520334,393.10940496069213 93.89509270334347,403.7813193221732 93.0145820289985,409.1172765029137 91.25356068030857,419.78919086439475 89.49253933161863,430.4611052258758 78.91696929825434,434.91552114359257 81.13717186534998,423.43156732220393 83.27721865725788,412.8291547638391 85.41726544916577,402.22674220547424 87.55731224107365,391.62432964710945 89.69735903298152,381.0219170887446 90.76738242893548,375.72071080956215 92.85072792064554,365.2023962022697 94.8773721121578,354.7681795460496 96.90401630367005,344.33396288982954 98.93066049518231,333.8997462336095 100.95730468669456,323.4655295773894 101.97062678245068,318.2484212492794 102.98394887820682,313.03131292116933 103.99727097396294,307.8142045930593 102.15402102033374,295.26145685399894 94.20385543778349,294.52742983046875 90.27887977810404,298.1106695723652 86.75816735341162,309.9205272712677 82.90920393668108,313.5852948755849 79.06024051995055,317.25006247990206 75.21127710322003,320.91483008421926 67.51335026975897,328.2443652928537 59.815423436297905,335.573900501488 52.11749660283685,342.9034357101224 44.379276695678186,350.32605137336833 36.60076371482193,357.8417474912259 28.822250733965667,365.35744360908336 21.04373775310941,372.87313972694085 13.26522477225315,380.38883584479834 5.486711791396891,387.9045319626559 -6.6231708454440135,388.0875101106665 2.972710428950357,377.27879124564424 6.993356572250377,373.6618667685922 15.034648858850417,366.42801781448793 19.05529500215044,362.81109333743586 23.075941145450464,359.1941688603838 31.117233432050504,351.96031990627955 39.15852571865055,344.7264709521754 47.10414752163002,337.52630673322676 54.954098840988934,330.3598272494338 62.80405016034784,323.1933477656408 70.65400147970675,316.0268682818478 78.50395279906567,308.86038879805477 82.42892845874513,305.27714905615824 86.35390411842458,301.69390931426176 80.46052682582312,288.8735406585668 75.18532495896496,289.51951762478063 59.359719358390464,291.4574485234221 48.80931562467413,292.74940245584975 43.534113757815966,293.3953794220636 32.983710024099636,294.6873333544913 27.708508157241468,295.3333103207051 11.707187555425158,297.3726031925583 0.9810688204670228,298.7659190981977 -4.381990547012045,299.4625770510174 -9.745049914491112,300.15923500383707 -20.471168649449247,301.55255090947645 -31.19728738440738,302.94586681511583 -47.35418225138327,299.4818505682154 "></polygon><path stroke="black" d=" M 0.0 0.0 M 200.0 200.0 L 320.5849687380363 200.0 M 200.0 200.0 L 111.80233467351333 282.23081245196505 M 111.80233467351333 282.23081245196505 L 33.747619337294424 236.7403675770291 M 111.80233467351333 282.23081245196505 L 22.018609969166803 292.2708293519443 M 22.018609969166803 292.2708293519443 L -42.46657468427972 299.4818505682154 M 111.80233467351333 282.23081245196505 L 45.723852524028445 343.83887489478144 M 45.723852524028445 343.83887489478144 L -1.7355632783404644 388.0875101106665 M 111.80233467351333 282.23081245196505 L 95.50778128715135 371.09254038405487 M 95.50778128715135 371.09254038405487 L 83.80457686535789 434.91552114359257 M 111.80233467351333 282.23081245196505 L 151.72255608129262 363.2758313235258 M 200.0 200.0 L 208.43323726974546 79.71028641356996"></path></svg>